# MagicaVoxel @ Ephtracy

# group
g Aka

# material
mtllib Aka.mtl
usemtl palette

# normals
vn -1 0 0
vn 1 0 0
vn 0 0 1
vn 0 0 -1
vn 0 -1 0
vn 0 1 0

# texcoords
vt 0.232422 0.5
vt 0.373047 0.5
vt 0.982422 0.5

# verts
v -2.5 8 -25.5
v -2.5 8 -33.5
v -2.5 11 30.5
v -2.5 11 27.5
v -2.5 11 -1.5
v -2.5 11 -16.5
v -2.5 11 -25.5
v -2.5 15 30.5
v -2.5 15 27.5
v -2.5 15 -1.5
v -2.5 15 -16.5
v -2.5 15 -33.5
v -1.5 0 -10.5
v -1.5 0 -13.5
v -1.5 8 -6.5
v -1.5 8 -10.5
v -1.5 9 -7.5
v -1.5 9 -10.5
v -1.5 10 -9.5
v -1.5 10 -10.5
v -1.5 11 -1.5
v -1.5 11 -6.5
v -1.5 11 -7.5
v -1.5 11 -9.5
v -1.5 11 -13.5
v -1.5 11 -16.5
v -1.5 15 -1.5
v -1.5 15 -16.5
v -0.5 5 -2.5
v -0.5 5 -5.5
v -0.5 11 -2.5
v -0.5 11 -5.5
v -0.5 12 33.5
v -0.5 12 30.5
v -0.5 14 33.5
v -0.5 14 30.5
v -0.5 15 29.5
v -0.5 15 27.5
v -0.5 15 -1.5
v -0.5 15 -15.5
v -0.5 16 29.5
v -0.5 16 -15.5
v 0.5 5 -2.5
v 0.5 5 -5.5
v 0.5 11 -2.5
v 0.5 11 -5.5
v 0.5 12 33.5
v 0.5 12 30.5
v 0.5 14 33.5
v 0.5 14 30.5
v 0.5 15 29.5
v 0.5 15 27.5
v 0.5 15 -1.5
v 0.5 15 -15.5
v 0.5 16 29.5
v 0.5 16 -15.5
v 1.5 0 -10.5
v 1.5 0 -13.5
v 1.5 8 -6.5
v 1.5 8 -10.5
v 1.5 9 -7.5
v 1.5 9 -10.5
v 1.5 10 -9.5
v 1.5 10 -10.5
v 1.5 11 -1.5
v 1.5 11 -6.5
v 1.5 11 -7.5
v 1.5 11 -9.5
v 1.5 11 -13.5
v 1.5 11 -16.5
v 1.5 15 -1.5
v 1.5 15 -16.5
v 2.5 8 -25.5
v 2.5 8 -33.5
v 2.5 11 30.5
v 2.5 11 27.5
v 2.5 11 -1.5
v 2.5 11 -16.5
v 2.5 11 -25.5
v 2.5 15 30.5
v 2.5 15 27.5
v 2.5 15 -1.5
v 2.5 15 -16.5
v 2.5 15 -33.5
v -0.5 12 33.5
v -0.5 14 33.5
v 0.5 12 33.5
v 0.5 14 33.5
v -2.5 11 30.5
v -2.5 15 30.5
v -0.5 12 30.5
v -0.5 14 30.5
v 0.5 12 30.5
v 0.5 14 30.5
v 2.5 11 30.5
v 2.5 15 30.5
v -0.5 15 29.5
v -0.5 16 29.5
v 0.5 15 29.5
v 0.5 16 29.5
v -0.5 5 -2.5
v -0.5 11 -2.5
v 0.5 5 -2.5
v 0.5 11 -2.5
v -1.5 8 -6.5
v -1.5 11 -6.5
v 1.5 8 -6.5
v 1.5 11 -6.5
v -1.5 10 -9.5
v -1.5 11 -9.5
v 1.5 10 -9.5
v 1.5 11 -9.5
v -1.5 0 -10.5
v -1.5 8 -10.5
v -1.5 9 -10.5
v -1.5 10 -10.5
v 1.5 0 -10.5
v 1.5 8 -10.5
v 1.5 9 -10.5
v 1.5 10 -10.5
v -2.5 11 -16.5
v -2.5 15 -16.5
v -1.5 11 -16.5
v -1.5 15 -16.5
v 1.5 11 -16.5
v 1.5 15 -16.5
v 2.5 11 -16.5
v 2.5 15 -16.5
v -2.5 8 -25.5
v -2.5 11 -25.5
v 2.5 8 -25.5
v 2.5 11 -25.5
v -2.5 11 -1.5
v -2.5 15 -1.5
v -1.5 11 -1.5
v -1.5 15 -1.5
v 1.5 11 -1.5
v 1.5 15 -1.5
v 2.5 11 -1.5
v 2.5 15 -1.5
v -0.5 5 -5.5
v -0.5 11 -5.5
v 0.5 5 -5.5
v 0.5 11 -5.5
v -1.5 9 -7.5
v -1.5 11 -7.5
v 1.5 9 -7.5
v 1.5 11 -7.5
v -1.5 0 -13.5
v -1.5 11 -13.5
v 1.5 0 -13.5
v 1.5 11 -13.5
v -0.5 15 -15.5
v -0.5 16 -15.5
v 0.5 15 -15.5
v 0.5 16 -15.5
v -2.5 8 -33.5
v -2.5 15 -33.5
v 2.5 8 -33.5
v 2.5 15 -33.5
v -1.5 0 -10.5
v 1.5 0 -10.5
v -1.5 0 -13.5
v 1.5 0 -13.5
v -0.5 5 -2.5
v 0.5 5 -2.5
v -0.5 5 -5.5
v 0.5 5 -5.5
v -1.5 8 -6.5
v 1.5 8 -6.5
v -1.5 8 -10.5
v 1.5 8 -10.5
v -2.5 8 -25.5
v 2.5 8 -25.5
v -2.5 8 -33.5
v 2.5 8 -33.5
v -1.5 10 -9.5
v 1.5 10 -9.5
v -1.5 10 -10.5
v 1.5 10 -10.5
v -2.5 11 30.5
v 2.5 11 30.5
v -2.5 11 27.5
v 2.5 11 27.5
v -2.5 11 -1.5
v -1.5 11 -1.5
v 1.5 11 -1.5
v 2.5 11 -1.5
v -0.5 11 -2.5
v 0.5 11 -2.5
v -0.5 11 -5.5
v 0.5 11 -5.5
v -1.5 11 -6.5
v 1.5 11 -6.5
v -1.5 11 -7.5
v 1.5 11 -7.5
v -1.5 11 -9.5
v 1.5 11 -9.5
v -1.5 11 -13.5
v 1.5 11 -13.5
v -2.5 11 -16.5
v -1.5 11 -16.5
v 1.5 11 -16.5
v 2.5 11 -16.5
v -2.5 11 -25.5
v 2.5 11 -25.5
v -0.5 12 33.5
v 0.5 12 33.5
v -0.5 12 30.5
v 0.5 12 30.5
v -1.5 9 -7.5
v 1.5 9 -7.5
v -1.5 9 -10.5
v 1.5 9 -10.5
v -0.5 14 33.5
v 0.5 14 33.5
v -0.5 14 30.5
v 0.5 14 30.5
v -2.5 15 30.5
v 2.5 15 30.5
v -0.5 15 29.5
v 0.5 15 29.5
v -2.5 15 27.5
v -0.5 15 27.5
v 0.5 15 27.5
v 2.5 15 27.5
v -2.5 15 -1.5
v -1.5 15 -1.5
v -0.5 15 -1.5
v 0.5 15 -1.5
v 1.5 15 -1.5
v 2.5 15 -1.5
v -0.5 15 -15.5
v 0.5 15 -15.5
v -2.5 15 -16.5
v -1.5 15 -16.5
v 1.5 15 -16.5
v 2.5 15 -16.5
v -2.5 15 -33.5
v 2.5 15 -33.5
v -0.5 16 29.5
v 0.5 16 29.5
v -0.5 16 -15.5
v 0.5 16 -15.5

# faces
f 7/1/1 2/1/1 1/1/1
f 8/3/1 4/3/1 3/3/1
f 9/1/1 5/1/1 4/1/1
f 9/3/1 4/3/1 8/3/1
f 10/1/1 5/1/1 9/1/1
f 11/1/1 7/1/1 6/1/1
f 12/1/1 2/1/1 7/1/1
f 12/1/1 7/1/1 11/1/1
f 16/3/1 14/3/1 13/3/1
f 17/3/1 16/3/1 15/3/1
f 18/3/1 14/3/1 16/3/1
f 18/3/1 16/3/1 17/3/1
f 20/3/1 14/3/1 18/3/1
f 22/3/1 17/3/1 15/3/1
f 23/3/1 17/3/1 22/3/1
f 24/3/1 20/3/1 19/3/1
f 25/3/1 14/3/1 20/3/1
f 25/3/1 20/3/1 24/3/1
f 27/3/1 23/3/1 22/3/1
f 27/3/1 26/3/1 25/3/1
f 27/3/1 25/3/1 24/3/1
f 27/3/1 24/3/1 23/3/1
f 27/3/1 22/3/1 21/3/1
f 28/3/1 26/3/1 27/3/1
f 31/3/1 30/3/1 29/3/1
f 32/3/1 30/3/1 31/3/1
f 35/3/1 34/3/1 33/3/1
f 36/3/1 34/3/1 35/3/1
f 41/3/1 39/3/1 38/3/1
f 41/3/1 40/3/1 39/3/1
f 41/3/1 38/3/1 37/3/1
f 42/3/1 40/3/1 41/3/1
f 43/3/2 44/3/2 45/3/2
f 45/3/2 44/3/2 46/3/2
f 47/3/2 48/3/2 49/3/2
f 49/3/2 48/3/2 50/3/2
f 52/3/2 53/3/2 55/3/2
f 53/3/2 54/3/2 55/3/2
f 51/3/2 52/3/2 55/3/2
f 55/3/2 54/3/2 56/3/2
f 57/3/2 58/3/2 60/3/2
f 59/3/2 60/3/2 61/3/2
f 60/3/2 58/3/2 62/3/2
f 61/3/2 60/3/2 62/3/2
f 62/3/2 58/3/2 64/3/2
f 59/3/2 61/3/2 66/3/2
f 66/3/2 61/3/2 67/3/2
f 63/3/2 64/3/2 68/3/2
f 64/3/2 58/3/2 69/3/2
f 68/3/2 64/3/2 69/3/2
f 66/3/2 67/3/2 71/3/2
f 69/3/2 70/3/2 71/3/2
f 68/3/2 69/3/2 71/3/2
f 67/3/2 68/3/2 71/3/2
f 65/3/2 66/3/2 71/3/2
f 71/3/2 70/3/2 72/3/2
f 73/1/2 74/1/2 79/1/2
f 75/3/2 76/3/2 80/3/2
f 76/1/2 77/1/2 81/1/2
f 80/3/2 76/3/2 81/3/2
f 81/1/2 77/1/2 82/1/2
f 78/1/2 79/1/2 83/1/2
f 79/1/2 74/1/2 84/1/2
f 83/1/2 79/1/2 84/1/2
f 87/3/3 86/3/3 85/3/3
f 88/3/3 86/3/3 87/3/3
f 91/3/3 90/3/3 89/3/3
f 92/3/3 90/3/3 91/3/3
f 93/3/3 91/3/3 89/3/3
f 94/3/3 90/3/3 92/3/3
f 95/3/3 93/3/3 89/3/3
f 95/3/3 94/3/3 93/3/3
f 96/3/3 90/3/3 94/3/3
f 96/3/3 94/3/3 95/3/3
f 99/3/3 98/3/3 97/3/3
f 100/3/3 98/3/3 99/3/3
f 103/3/3 102/3/3 101/3/3
f 104/3/3 102/3/3 103/3/3
f 107/3/3 106/3/3 105/3/3
f 108/3/3 106/3/3 107/3/3
f 111/3/3 110/3/3 109/3/3
f 112/3/3 110/3/3 111/3/3
f 117/3/3 114/3/3 113/3/3
f 118/3/3 114/3/3 117/3/3
f 119/3/3 116/3/3 115/3/3
f 120/3/3 116/3/3 119/3/3
f 123/1/3 122/1/3 121/1/3
f 124/1/3 122/1/3 123/1/3
f 127/1/3 126/1/3 125/1/3
f 128/1/3 126/1/3 127/1/3
f 131/1/3 130/1/3 129/1/3
f 132/1/3 130/1/3 131/1/3
f 133/1/4 134/1/4 135/1/4
f 135/1/4 134/1/4 136/1/4
f 137/1/4 138/1/4 139/1/4
f 139/1/4 138/1/4 140/1/4
f 141/3/4 142/3/4 143/3/4
f 143/3/4 142/3/4 144/3/4
f 145/3/4 146/3/4 147/3/4
f 147/3/4 146/3/4 148/3/4
f 149/3/4 150/3/4 151/3/4
f 151/3/4 150/3/4 152/3/4
f 153/3/4 154/3/4 155/3/4
f 155/3/4 154/3/4 156/3/4
f 157/1/4 158/1/4 159/1/4
f 159/1/4 158/1/4 160/1/4
f 163/3/5 162/3/5 161/3/5
f 164/3/5 162/3/5 163/3/5
f 167/3/5 166/3/5 165/3/5
f 168/3/5 166/3/5 167/3/5
f 171/3/5 170/3/5 169/3/5
f 172/3/5 170/3/5 171/3/5
f 175/1/5 174/1/5 173/1/5
f 176/1/5 174/1/5 175/1/5
f 179/3/5 178/3/5 177/3/5
f 180/3/5 178/3/5 179/3/5
f 183/3/5 182/3/5 181/3/5
f 184/3/5 182/3/5 183/3/5
f 185/1/5 184/1/5 183/1/5
f 186/1/5 184/1/5 185/1/5
f 187/1/5 184/1/5 186/1/5
f 188/1/5 184/1/5 187/1/5
f 189/3/5 187/3/5 186/3/5
f 190/3/5 187/3/5 189/3/5
f 191/3/5 189/3/5 186/3/5
f 192/3/5 187/3/5 190/3/5
f 193/3/5 191/3/5 186/3/5
f 193/3/5 192/3/5 191/3/5
f 194/3/5 187/3/5 192/3/5
f 194/3/5 192/3/5 193/3/5
f 197/3/5 196/3/5 195/3/5
f 198/3/5 196/3/5 197/3/5
f 202/3/5 200/3/5 199/3/5
f 203/3/5 200/3/5 202/3/5
f 205/1/5 203/1/5 202/1/5
f 205/1/5 204/1/5 203/1/5
f 205/1/5 202/1/5 201/1/5
f 206/1/5 204/1/5 205/1/5
f 209/3/5 208/3/5 207/3/5
f 210/3/5 208/3/5 209/3/5
f 211/3/6 212/3/6 213/3/6
f 213/3/6 212/3/6 214/3/6
f 215/3/6 216/3/6 217/3/6
f 217/3/6 216/3/6 218/3/6
f 219/3/6 220/3/6 221/3/6
f 221/3/6 220/3/6 222/3/6
f 219/3/6 221/3/6 223/3/6
f 223/3/6 221/3/6 224/3/6
f 222/3/6 220/3/6 225/3/6
f 225/3/6 220/3/6 226/3/6
f 223/1/6 224/1/6 227/1/6
f 227/1/6 224/1/6 228/1/6
f 228/1/6 224/1/6 229/1/6
f 225/1/6 226/1/6 230/1/6
f 230/1/6 226/1/6 231/1/6
f 231/1/6 226/1/6 232/1/6
f 228/3/6 229/3/6 233/3/6
f 230/3/6 231/3/6 234/3/6
f 228/3/6 233/3/6 236/3/6
f 233/3/6 234/3/6 236/3/6
f 234/3/6 231/3/6 237/3/6
f 236/3/6 234/3/6 237/3/6
f 235/1/6 236/1/6 239/1/6
f 237/1/6 238/1/6 239/1/6
f 236/1/6 237/1/6 239/1/6
f 239/1/6 238/1/6 240/1/6
f 241/3/6 242/3/6 243/3/6
f 243/3/6 242/3/6 244/3/6
