# MagicaVoxel @ Ephtracy

# group
g Escopeta

# material
mtllib Escopeta.mtl
usemtl palette

# normals
vn -1 0 0
vn 1 0 0
vn 0 0 1
vn 0 0 -1
vn 0 -1 0
vn 0 1 0

# texcoords
vt 0.373047 0.5
vt 0.982422 0.5
vt 0.990234 0.5

# verts
v -1.5 0 -5
v -1.5 0 -8
v -1.5 8 -1
v -1.5 8 -5
v -1.5 9 -2
v -1.5 9 -5
v -1.5 9 -17
v -1.5 9 -23
v -1.5 10 17
v -1.5 10 4
v -1.5 10 -4
v -1.5 10 -5
v -1.5 11 20
v -1.5 11 17
v -1.5 11 16
v -1.5 11 15
v -1.5 11 14
v -1.5 11 13
v -1.5 11 12
v -1.5 11 11
v -1.5 11 10
v -1.5 11 9
v -1.5 11 8
v -1.5 11 7
v -1.5 11 6
v -1.5 11 5
v -1.5 11 4
v -1.5 11 -1
v -1.5 11 -2
v -1.5 11 -4
v -1.5 11 -8
v -1.5 11 -17
v -1.5 14 16
v -1.5 14 15
v -1.5 14 14
v -1.5 14 13
v -1.5 14 12
v -1.5 14 11
v -1.5 14 10
v -1.5 14 9
v -1.5 14 8
v -1.5 14 7
v -1.5 14 6
v -1.5 14 5
v -1.5 15 20
v -1.5 15 17
v -1.5 15 4
v -1.5 15 -23
v -0.5 11 16
v -0.5 11 15
v -0.5 11 14
v -0.5 11 13
v -0.5 11 12
v -0.5 11 11
v -0.5 11 10
v -0.5 11 9
v -0.5 11 8
v -0.5 11 7
v -0.5 11 6
v -0.5 11 5
v -0.5 12 23
v -0.5 12 20
v -0.5 14 23
v -0.5 14 20
v -0.5 14 16
v -0.5 14 15
v -0.5 14 14
v -0.5 14 13
v -0.5 14 12
v -0.5 14 11
v -0.5 14 10
v -0.5 14 9
v -0.5 14 8
v -0.5 14 7
v -0.5 14 6
v -0.5 14 5
v -0.5 15 19
v -0.5 15 17
v -0.5 15 4
v -0.5 15 -10
v -0.5 16 19
v -0.5 16 -10
v 0.5 11 16
v 0.5 11 15
v 0.5 11 14
v 0.5 11 13
v 0.5 11 12
v 0.5 11 11
v 0.5 11 10
v 0.5 11 9
v 0.5 11 8
v 0.5 11 7
v 0.5 11 6
v 0.5 11 5
v 0.5 12 23
v 0.5 12 20
v 0.5 14 23
v 0.5 14 20
v 0.5 14 16
v 0.5 14 15
v 0.5 14 14
v 0.5 14 13
v 0.5 14 12
v 0.5 14 11
v 0.5 14 10
v 0.5 14 9
v 0.5 14 8
v 0.5 14 7
v 0.5 14 6
v 0.5 14 5
v 0.5 15 19
v 0.5 15 17
v 0.5 15 4
v 0.5 15 -10
v 0.5 16 19
v 0.5 16 -10
v 1.5 0 -5
v 1.5 0 -8
v 1.5 8 -1
v 1.5 8 -5
v 1.5 9 -2
v 1.5 9 -5
v 1.5 9 -17
v 1.5 9 -23
v 1.5 10 17
v 1.5 10 4
v 1.5 10 -4
v 1.5 10 -5
v 1.5 11 20
v 1.5 11 17
v 1.5 11 16
v 1.5 11 15
v 1.5 11 14
v 1.5 11 13
v 1.5 11 12
v 1.5 11 11
v 1.5 11 10
v 1.5 11 9
v 1.5 11 8
v 1.5 11 7
v 1.5 11 6
v 1.5 11 5
v 1.5 11 4
v 1.5 11 -1
v 1.5 11 -2
v 1.5 11 -4
v 1.5 11 -8
v 1.5 11 -17
v 1.5 14 16
v 1.5 14 15
v 1.5 14 14
v 1.5 14 13
v 1.5 14 12
v 1.5 14 11
v 1.5 14 10
v 1.5 14 9
v 1.5 14 8
v 1.5 14 7
v 1.5 14 6
v 1.5 14 5
v 1.5 15 20
v 1.5 15 17
v 1.5 15 4
v 1.5 15 -23
v -0.5 12 23
v -0.5 14 23
v 0.5 12 23
v 0.5 14 23
v -1.5 11 20
v -1.5 15 20
v -0.5 12 20
v -0.5 14 20
v 0.5 12 20
v 0.5 14 20
v 1.5 11 20
v 1.5 15 20
v -0.5 15 19
v -0.5 16 19
v 0.5 15 19
v 0.5 16 19
v -1.5 10 17
v -1.5 11 17
v 1.5 10 17
v 1.5 11 17
v -1.5 11 15
v -1.5 14 15
v -0.5 11 15
v -0.5 14 15
v 0.5 11 15
v 0.5 14 15
v 1.5 11 15
v 1.5 14 15
v -1.5 11 13
v -1.5 14 13
v -0.5 11 13
v -0.5 14 13
v 0.5 11 13
v 0.5 14 13
v 1.5 11 13
v 1.5 14 13
v -1.5 11 11
v -1.5 14 11
v -0.5 11 11
v -0.5 14 11
v 0.5 11 11
v 0.5 14 11
v 1.5 11 11
v 1.5 14 11
v -1.5 11 9
v -1.5 14 9
v -0.5 11 9
v -0.5 14 9
v 0.5 11 9
v 0.5 14 9
v 1.5 11 9
v 1.5 14 9
v -1.5 11 7
v -1.5 14 7
v -0.5 11 7
v -0.5 14 7
v 0.5 11 7
v 0.5 14 7
v 1.5 11 7
v 1.5 14 7
v -1.5 11 5
v -1.5 14 5
v -0.5 11 5
v -0.5 14 5
v 0.5 11 5
v 0.5 14 5
v 1.5 11 5
v 1.5 14 5
v -1.5 8 -1
v -1.5 11 -1
v 1.5 8 -1
v 1.5 11 -1
v -1.5 10 -4
v -1.5 11 -4
v 1.5 10 -4
v 1.5 11 -4
v -1.5 0 -5
v -1.5 8 -5
v -1.5 9 -5
v -1.5 10 -5
v 1.5 0 -5
v 1.5 8 -5
v 1.5 9 -5
v 1.5 10 -5
v -1.5 9 -17
v -1.5 11 -17
v 1.5 9 -17
v 1.5 11 -17
v -1.5 11 16
v -1.5 14 16
v -0.5 11 16
v -0.5 14 16
v 0.5 11 16
v 0.5 14 16
v 1.5 11 16
v 1.5 14 16
v -1.5 11 14
v -1.5 14 14
v -0.5 11 14
v -0.5 14 14
v 0.5 11 14
v 0.5 14 14
v 1.5 11 14
v 1.5 14 14
v -1.5 11 12
v -1.5 14 12
v -0.5 11 12
v -0.5 14 12
v 0.5 11 12
v 0.5 14 12
v 1.5 11 12
v 1.5 14 12
v -1.5 11 10
v -1.5 14 10
v -0.5 11 10
v -0.5 14 10
v 0.5 11 10
v 0.5 14 10
v 1.5 11 10
v 1.5 14 10
v -1.5 11 8
v -1.5 14 8
v -0.5 11 8
v -0.5 14 8
v 0.5 11 8
v 0.5 14 8
v 1.5 11 8
v 1.5 14 8
v -1.5 11 6
v -1.5 14 6
v -0.5 11 6
v -0.5 14 6
v 0.5 11 6
v 0.5 14 6
v 1.5 11 6
v 1.5 14 6
v -1.5 10 4
v -1.5 11 4
v 1.5 10 4
v 1.5 11 4
v -1.5 9 -2
v -1.5 11 -2
v 1.5 9 -2
v 1.5 11 -2
v -1.5 0 -8
v -1.5 11 -8
v 1.5 0 -8
v 1.5 11 -8
v -0.5 15 -10
v -0.5 16 -10
v 0.5 15 -10
v 0.5 16 -10
v -1.5 9 -23
v -1.5 15 -23
v 1.5 9 -23
v 1.5 15 -23
v -1.5 0 -5
v 1.5 0 -5
v -1.5 0 -8
v 1.5 0 -8
v -1.5 8 -1
v 1.5 8 -1
v -1.5 8 -5
v 1.5 8 -5
v -1.5 9 -17
v 1.5 9 -17
v -1.5 9 -23
v 1.5 9 -23
v -1.5 10 17
v 1.5 10 17
v -1.5 10 4
v 1.5 10 4
v -1.5 10 -4
v 1.5 10 -4
v -1.5 10 -5
v 1.5 10 -5
v -1.5 11 20
v 1.5 11 20
v -1.5 11 17
v 1.5 11 17
v -1.5 11 4
v 1.5 11 4
v -1.5 11 -1
v 1.5 11 -1
v -1.5 11 -2
v 1.5 11 -2
v -1.5 11 -4
v 1.5 11 -4
v -1.5 11 -8
v 1.5 11 -8
v -1.5 11 -17
v 1.5 11 -17
v -0.5 12 23
v 0.5 12 23
v -0.5 12 20
v 0.5 12 20
v -1.5 14 16
v -0.5 14 16
v 0.5 14 16
v 1.5 14 16
v -1.5 14 15
v -0.5 14 15
v 0.5 14 15
v 1.5 14 15
v -1.5 14 14
v -0.5 14 14
v 0.5 14 14
v 1.5 14 14
v -1.5 14 13
v -0.5 14 13
v 0.5 14 13
v 1.5 14 13
v -1.5 14 12
v -0.5 14 12
v 0.5 14 12
v 1.5 14 12
v -1.5 14 11
v -0.5 14 11
v 0.5 14 11
v 1.5 14 11
v -1.5 14 10
v -0.5 14 10
v 0.5 14 10
v 1.5 14 10
v -1.5 14 9
v -0.5 14 9
v 0.5 14 9
v 1.5 14 9
v -1.5 14 8
v -0.5 14 8
v 0.5 14 8
v 1.5 14 8
v -1.5 14 7
v -0.5 14 7
v 0.5 14 7
v 1.5 14 7
v -1.5 14 6
v -0.5 14 6
v 0.5 14 6
v 1.5 14 6
v -1.5 14 5
v -0.5 14 5
v 0.5 14 5
v 1.5 14 5
v -1.5 9 -2
v 1.5 9 -2
v -1.5 9 -5
v 1.5 9 -5
v -1.5 11 16
v -0.5 11 16
v 0.5 11 16
v 1.5 11 16
v -1.5 11 15
v -0.5 11 15
v 0.5 11 15
v 1.5 11 15
v -1.5 11 14
v -0.5 11 14
v 0.5 11 14
v 1.5 11 14
v -1.5 11 13
v -0.5 11 13
v 0.5 11 13
v 1.5 11 13
v -1.5 11 12
v -0.5 11 12
v 0.5 11 12
v 1.5 11 12
v -1.5 11 11
v -0.5 11 11
v 0.5 11 11
v 1.5 11 11
v -1.5 11 10
v -0.5 11 10
v 0.5 11 10
v 1.5 11 10
v -1.5 11 9
v -0.5 11 9
v 0.5 11 9
v 1.5 11 9
v -1.5 11 8
v -0.5 11 8
v 0.5 11 8
v 1.5 11 8
v -1.5 11 7
v -0.5 11 7
v 0.5 11 7
v 1.5 11 7
v -1.5 11 6
v -0.5 11 6
v 0.5 11 6
v 1.5 11 6
v -1.5 11 5
v -0.5 11 5
v 0.5 11 5
v 1.5 11 5
v -0.5 14 23
v 0.5 14 23
v -0.5 14 20
v 0.5 14 20
v -1.5 15 20
v 1.5 15 20
v -0.5 15 19
v 0.5 15 19
v -1.5 15 17
v -0.5 15 17
v 0.5 15 17
v 1.5 15 17
v -1.5 15 4
v -0.5 15 4
v 0.5 15 4
v 1.5 15 4
v -0.5 15 -10
v 0.5 15 -10
v -1.5 15 -23
v 1.5 15 -23
v -0.5 16 19
v 0.5 16 19
v -0.5 16 -10
v 0.5 16 -10

# faces
f 4/2/1 2/2/1 1/2/1
f 5/2/1 4/2/1 3/2/1
f 6/2/1 2/2/1 4/2/1
f 6/2/1 4/2/1 5/2/1
f 12/2/1 2/2/1 6/2/1
f 14/3/1 10/3/1 9/3/1
f 15/3/1 10/3/1 14/3/1
f 16/3/1 10/3/1 15/3/1
f 17/3/1 10/3/1 16/3/1
f 18/3/1 10/3/1 17/3/1
f 19/3/1 10/3/1 18/3/1
f 20/3/1 10/3/1 19/3/1
f 21/3/1 10/3/1 20/3/1
f 22/3/1 10/3/1 21/3/1
f 23/3/1 10/3/1 22/3/1
f 24/3/1 10/3/1 23/3/1
f 25/3/1 10/3/1 24/3/1
f 26/3/1 10/3/1 25/3/1
f 27/3/1 10/3/1 26/3/1
f 28/2/1 5/2/1 3/2/1
f 29/2/1 5/2/1 28/2/1
f 30/2/1 12/2/1 11/2/1
f 31/2/1 2/2/1 12/2/1
f 31/2/1 12/2/1 30/2/1
f 32/2/1 8/2/1 7/2/1
f 33/3/1 15/3/1 14/3/1
f 34/3/1 17/3/1 16/3/1
f 35/3/1 17/3/1 34/3/1
f 36/3/1 19/3/1 18/3/1
f 37/3/1 19/3/1 36/3/1
f 38/3/1 21/3/1 20/3/1
f 39/3/1 21/3/1 38/3/1
f 40/3/1 23/3/1 22/3/1
f 41/3/1 23/3/1 40/3/1
f 42/3/1 25/3/1 24/3/1
f 43/3/1 25/3/1 42/3/1
f 44/3/1 27/3/1 26/3/1
f 45/2/1 14/2/1 13/2/1
f 46/3/1 43/3/1 42/3/1
f 46/2/1 14/2/1 45/2/1
f 46/3/1 44/3/1 43/3/1
f 46/3/1 33/3/1 14/3/1
f 46/3/1 35/3/1 34/3/1
f 46/3/1 42/3/1 41/3/1
f 46/3/1 37/3/1 36/3/1
f 46/3/1 40/3/1 39/3/1
f 46/3/1 39/3/1 38/3/1
f 46/3/1 38/3/1 37/3/1
f 46/3/1 41/3/1 40/3/1
f 46/3/1 36/3/1 35/3/1
f 46/3/1 34/3/1 33/3/1
f 47/2/1 31/2/1 30/2/1
f 47/3/1 44/3/1 46/3/1
f 47/2/1 29/2/1 28/2/1
f 47/2/1 30/2/1 29/2/1
f 47/3/1 27/3/1 44/3/1
f 47/2/1 32/2/1 31/2/1
f 47/2/1 28/2/1 27/2/1
f 48/2/1 8/2/1 32/2/1
f 48/2/1 32/2/1 47/2/1
f 63/2/1 62/2/1 61/2/1
f 64/2/1 62/2/1 63/2/1
f 65/3/1 50/3/1 49/3/1
f 66/3/1 50/3/1 65/3/1
f 67/3/1 52/3/1 51/3/1
f 68/3/1 52/3/1 67/3/1
f 69/3/1 54/3/1 53/3/1
f 70/3/1 54/3/1 69/3/1
f 71/3/1 56/3/1 55/3/1
f 72/3/1 56/3/1 71/3/1
f 73/3/1 58/3/1 57/3/1
f 74/3/1 58/3/1 73/3/1
f 75/3/1 60/3/1 59/3/1
f 76/3/1 60/3/1 75/3/1
f 81/2/1 78/2/1 77/2/1
f 81/2/1 80/2/1 79/2/1
f 81/2/1 79/2/1 78/2/1
f 82/2/1 80/2/1 81/2/1
f 95/2/2 96/2/2 97/2/2
f 97/2/2 96/2/2 98/2/2
f 83/3/2 84/3/2 99/3/2
f 99/3/2 84/3/2 100/3/2
f 85/3/2 86/3/2 101/3/2
f 101/3/2 86/3/2 102/3/2
f 87/3/2 88/3/2 103/3/2
f 103/3/2 88/3/2 104/3/2
f 89/3/2 90/3/2 105/3/2
f 105/3/2 90/3/2 106/3/2
f 91/3/2 92/3/2 107/3/2
f 107/3/2 92/3/2 108/3/2
f 93/3/2 94/3/2 109/3/2
f 109/3/2 94/3/2 110/3/2
f 111/2/2 112/2/2 115/2/2
f 113/2/2 114/2/2 115/2/2
f 112/2/2 113/2/2 115/2/2
f 115/2/2 114/2/2 116/2/2
f 117/2/2 118/2/2 120/2/2
f 119/2/2 120/2/2 121/2/2
f 120/2/2 118/2/2 122/2/2
f 121/2/2 120/2/2 122/2/2
f 122/2/2 118/2/2 128/2/2
f 125/3/2 126/3/2 130/3/2
f 130/3/2 126/3/2 131/3/2
f 131/3/2 126/3/2 132/3/2
f 132/3/2 126/3/2 133/3/2
f 133/3/2 126/3/2 134/3/2
f 134/3/2 126/3/2 135/3/2
f 135/3/2 126/3/2 136/3/2
f 136/3/2 126/3/2 137/3/2
f 137/3/2 126/3/2 138/3/2
f 138/3/2 126/3/2 139/3/2
f 139/3/2 126/3/2 140/3/2
f 140/3/2 126/3/2 141/3/2
f 141/3/2 126/3/2 142/3/2
f 142/3/2 126/3/2 143/3/2
f 119/2/2 121/2/2 144/2/2
f 144/2/2 121/2/2 145/2/2
f 127/2/2 128/2/2 146/2/2
f 128/2/2 118/2/2 147/2/2
f 146/2/2 128/2/2 147/2/2
f 123/2/2 124/2/2 148/2/2
f 130/3/2 131/3/2 149/3/2
f 132/3/2 133/3/2 150/3/2
f 150/3/2 133/3/2 151/3/2
f 134/3/2 135/3/2 152/3/2
f 152/3/2 135/3/2 153/3/2
f 136/3/2 137/3/2 154/3/2
f 154/3/2 137/3/2 155/3/2
f 138/3/2 139/3/2 156/3/2
f 156/3/2 139/3/2 157/3/2
f 140/3/2 141/3/2 158/3/2
f 158/3/2 141/3/2 159/3/2
f 142/3/2 143/3/2 160/3/2
f 129/2/2 130/2/2 161/2/2
f 158/3/2 159/3/2 162/3/2
f 161/2/2 130/2/2 162/2/2
f 159/3/2 160/3/2 162/3/2
f 130/3/2 149/3/2 162/3/2
f 150/3/2 151/3/2 162/3/2
f 157/3/2 158/3/2 162/3/2
f 152/3/2 153/3/2 162/3/2
f 155/3/2 156/3/2 162/3/2
f 154/3/2 155/3/2 162/3/2
f 153/3/2 154/3/2 162/3/2
f 156/3/2 157/3/2 162/3/2
f 151/3/2 152/3/2 162/3/2
f 149/3/2 150/3/2 162/3/2
f 146/2/2 147/2/2 163/2/2
f 162/3/2 160/3/2 163/3/2
f 144/2/2 145/2/2 163/2/2
f 145/2/2 146/2/2 163/2/2
f 160/3/2 143/3/2 163/3/2
f 147/2/2 148/2/2 163/2/2
f 143/2/2 144/2/2 163/2/2
f 148/2/2 124/2/2 164/2/2
f 163/2/2 148/2/2 164/2/2
f 167/2/3 166/2/3 165/2/3
f 168/2/3 166/2/3 167/2/3
f 171/2/3 170/2/3 169/2/3
f 172/2/3 170/2/3 171/2/3
f 173/2/3 171/2/3 169/2/3
f 174/2/3 170/2/3 172/2/3
f 175/2/3 173/2/3 169/2/3
f 175/2/3 174/2/3 173/2/3
f 176/2/3 170/2/3 174/2/3
f 176/2/3 174/2/3 175/2/3
f 179/2/3 178/2/3 177/2/3
f 180/2/3 178/2/3 179/2/3
f 183/3/3 182/3/3 181/3/3
f 184/3/3 182/3/3 183/3/3
f 187/3/3 186/3/3 185/3/3
f 188/3/3 186/3/3 187/3/3
f 191/3/3 190/3/3 189/3/3
f 192/3/3 190/3/3 191/3/3
f 195/3/3 194/3/3 193/3/3
f 196/3/3 194/3/3 195/3/3
f 199/3/3 198/3/3 197/3/3
f 200/3/3 198/3/3 199/3/3
f 203/3/3 202/3/3 201/3/3
f 204/3/3 202/3/3 203/3/3
f 207/3/3 206/3/3 205/3/3
f 208/3/3 206/3/3 207/3/3
f 211/3/3 210/3/3 209/3/3
f 212/3/3 210/3/3 211/3/3
f 215/3/3 214/3/3 213/3/3
f 216/3/3 214/3/3 215/3/3
f 219/3/3 218/3/3 217/3/3
f 220/3/3 218/3/3 219/3/3
f 223/3/3 222/3/3 221/3/3
f 224/3/3 222/3/3 223/3/3
f 227/3/3 226/3/3 225/3/3
f 228/3/3 226/3/3 227/3/3
f 231/3/3 230/3/3 229/3/3
f 232/3/3 230/3/3 231/3/3
f 235/2/3 234/2/3 233/2/3
f 236/2/3 234/2/3 235/2/3
f 239/2/3 238/2/3 237/2/3
f 240/2/3 238/2/3 239/2/3
f 245/2/3 242/2/3 241/2/3
f 246/2/3 242/2/3 245/2/3
f 247/2/3 244/2/3 243/2/3
f 248/2/3 244/2/3 247/2/3
f 251/2/3 250/2/3 249/2/3
f 252/2/3 250/2/3 251/2/3
f 253/3/4 254/3/4 255/3/4
f 255/3/4 254/3/4 256/3/4
f 257/3/4 258/3/4 259/3/4
f 259/3/4 258/3/4 260/3/4
f 261/3/4 262/3/4 263/3/4
f 263/3/4 262/3/4 264/3/4
f 265/3/4 266/3/4 267/3/4
f 267/3/4 266/3/4 268/3/4
f 269/3/4 270/3/4 271/3/4
f 271/3/4 270/3/4 272/3/4
f 273/3/4 274/3/4 275/3/4
f 275/3/4 274/3/4 276/3/4
f 277/3/4 278/3/4 279/3/4
f 279/3/4 278/3/4 280/3/4
f 281/3/4 282/3/4 283/3/4
f 283/3/4 282/3/4 284/3/4
f 285/3/4 286/3/4 287/3/4
f 287/3/4 286/3/4 288/3/4
f 289/3/4 290/3/4 291/3/4
f 291/3/4 290/3/4 292/3/4
f 293/3/4 294/3/4 295/3/4
f 295/3/4 294/3/4 296/3/4
f 297/3/4 298/3/4 299/3/4
f 299/3/4 298/3/4 300/3/4
f 301/3/4 302/3/4 303/3/4
f 303/3/4 302/3/4 304/3/4
f 305/2/4 306/2/4 307/2/4
f 307/2/4 306/2/4 308/2/4
f 309/2/4 310/2/4 311/2/4
f 311/2/4 310/2/4 312/2/4
f 313/2/4 314/2/4 315/2/4
f 315/2/4 314/2/4 316/2/4
f 317/2/4 318/2/4 319/2/4
f 319/2/4 318/2/4 320/2/4
f 323/2/5 322/2/5 321/2/5
f 324/2/5 322/2/5 323/2/5
f 327/2/5 326/2/5 325/2/5
f 328/2/5 326/2/5 327/2/5
f 331/2/5 330/2/5 329/2/5
f 332/2/5 330/2/5 331/2/5
f 335/3/5 334/3/5 333/3/5
f 336/3/5 334/3/5 335/3/5
f 339/2/5 338/2/5 337/2/5
f 340/2/5 338/2/5 339/2/5
f 343/2/5 342/2/5 341/2/5
f 344/2/5 342/2/5 343/2/5
f 347/2/5 346/2/5 345/2/5
f 348/2/5 346/2/5 347/2/5
f 351/2/5 350/2/5 349/2/5
f 352/2/5 350/2/5 351/2/5
f 355/2/5 354/2/5 353/2/5
f 356/2/5 354/2/5 355/2/5
f 359/2/5 358/2/5 357/2/5
f 360/2/5 358/2/5 359/2/5
f 365/3/5 362/3/5 361/3/5
f 366/3/5 362/3/5 365/3/5
f 367/3/5 364/3/5 363/3/5
f 368/3/5 364/3/5 367/3/5
f 373/3/5 370/3/5 369/3/5
f 374/3/5 370/3/5 373/3/5
f 375/3/5 372/3/5 371/3/5
f 376/3/5 372/3/5 375/3/5
f 381/3/5 378/3/5 377/3/5
f 382/3/5 378/3/5 381/3/5
f 383/3/5 380/3/5 379/3/5
f 384/3/5 380/3/5 383/3/5
f 389/3/5 386/3/5 385/3/5
f 390/3/5 386/3/5 389/3/5
f 391/3/5 388/3/5 387/3/5
f 392/3/5 388/3/5 391/3/5
f 397/3/5 394/3/5 393/3/5
f 398/3/5 394/3/5 397/3/5
f 399/3/5 396/3/5 395/3/5
f 400/3/5 396/3/5 399/3/5
f 405/3/5 402/3/5 401/3/5
f 406/3/5 402/3/5 405/3/5
f 407/3/5 404/3/5 403/3/5
f 408/3/5 404/3/5 407/3/5
f 409/2/6 410/2/6 411/2/6
f 411/2/6 410/2/6 412/2/6
f 413/3/6 414/3/6 417/3/6
f 417/3/6 414/3/6 418/3/6
f 415/3/6 416/3/6 419/3/6
f 419/3/6 416/3/6 420/3/6
f 421/3/6 422/3/6 425/3/6
f 425/3/6 422/3/6 426/3/6
f 423/3/6 424/3/6 427/3/6
f 427/3/6 424/3/6 428/3/6
f 429/3/6 430/3/6 433/3/6
f 433/3/6 430/3/6 434/3/6
f 431/3/6 432/3/6 435/3/6
f 435/3/6 432/3/6 436/3/6
f 437/3/6 438/3/6 441/3/6
f 441/3/6 438/3/6 442/3/6
f 439/3/6 440/3/6 443/3/6
f 443/3/6 440/3/6 444/3/6
f 445/3/6 446/3/6 449/3/6
f 449/3/6 446/3/6 450/3/6
f 447/3/6 448/3/6 451/3/6
f 451/3/6 448/3/6 452/3/6
f 453/3/6 454/3/6 457/3/6
f 457/3/6 454/3/6 458/3/6
f 455/3/6 456/3/6 459/3/6
f 459/3/6 456/3/6 460/3/6
f 461/2/6 462/2/6 463/2/6
f 463/2/6 462/2/6 464/2/6
f 465/2/6 466/2/6 467/2/6
f 467/2/6 466/2/6 468/2/6
f 465/2/6 467/2/6 469/2/6
f 469/2/6 467/2/6 470/2/6
f 468/2/6 466/2/6 471/2/6
f 471/2/6 466/2/6 472/2/6
f 469/3/6 470/3/6 473/3/6
f 473/3/6 470/3/6 474/3/6
f 471/3/6 472/3/6 475/3/6
f 475/3/6 472/3/6 476/3/6
f 473/2/6 474/2/6 477/2/6
f 475/2/6 476/2/6 478/2/6
f 473/2/6 477/2/6 479/2/6
f 477/2/6 478/2/6 479/2/6
f 478/2/6 476/2/6 480/2/6
f 479/2/6 478/2/6 480/2/6
f 481/2/6 482/2/6 483/2/6
f 483/2/6 482/2/6 484/2/6
